<?xml version="1.0" encoding="utf-8"?>
<!-- Generator: Adobe Illustrator 26.5.0, SVG Export Plug-In . SVG Version: 6.00 Build 0)  -->
<svg version="1.1" id="_x32_" xmlns="http://www.w3.org/2000/svg" xmlns:xlink="http://www.w3.org/1999/xlink" x="0px" y="0px"
	 viewBox="0 0 800 800" style="enable-background:new 0 0 800 800;" xml:space="preserve">
<style type="text/css">
	.st0{fill:#27AAE1;}
</style>
<g>
	<path class="st0" d="M797.9,175.4c-3.6-18.2-11.7-34.8-22.9-48.5c-2.4-3-4.8-5.7-7.5-8.4C747.6,98.5,719.6,86,689,86H111
		c-30.6,0-58.4,12.5-78.5,32.5c-2.7,2.7-5.2,5.4-7.5,8.4c-11.3,13.7-19.3,30.4-22.8,48.5C0.7,182.4,0,189.7,0,197v406
		c0,15.6,3.3,30.5,9.2,44.1c5.5,12.9,13.5,24.6,23.3,34.4c2.5,2.5,5,4.8,7.6,7c19.2,15.9,44,25.5,70.8,25.5H689
		c26.8,0,51.7-9.6,70.8-25.6c2.7-2.2,5.2-4.4,7.6-6.9c9.8-9.8,17.9-21.5,23.4-34.4V647c5.9-13.5,9.1-28.4,9.1-44V197
		C800,189.7,799.3,182.4,797.9,175.4z M72.7,158.7c9.9-9.9,23.2-15.9,38.3-15.9H689c15.1,0,28.5,6,38.3,15.9
		c1.8,1.8,3.4,3.7,4.9,5.7l-303,264.1c-8.4,7.3-18.7,10.9-29.2,10.9c-10.4,0-20.7-3.6-29.2-10.9L67.9,164.3
		C69.3,162.3,70.9,160.5,72.7,158.7z M56.8,603V223L276,414.3L56.9,605.4C56.8,604.6,56.8,603.8,56.8,603z M689,657.2H111
		c-9.8,0-19-2.6-26.8-7.1l231.2-201.5l21.6,18.8C355,483,377.6,491,400,491c22.5,0,45.1-8,63.2-23.6l21.6-18.8l231.1,201.5
		C708,654.6,698.8,657.2,689,657.2z M743.2,603c0,0.8,0,1.6-0.1,2.4L524,414.4l219.2-191.3V603z"/>
</g>
</svg>
