<?xml version="1.0" encoding="utf-8"?>
<!-- Generator: Adobe Illustrator 26.5.0, SVG Export Plug-In . SVG Version: 6.00 Build 0)  -->
<svg version="1.1" id="Layer_1" xmlns="http://www.w3.org/2000/svg" xmlns:xlink="http://www.w3.org/1999/xlink" x="0px" y="0px"
	 viewBox="0 0 800 800" style="enable-background:new 0 0 800 800;" xml:space="preserve">
<style type="text/css">
	.st0{fill:#FAA61A;}
</style>
<path class="st0" d="M400,0C179.1,0-1.6,180.3-1.6,402.4c0,200.8,147,367.5,339,397.6V518.9h-102V402.4h102v-88.8
	c0-100.8,59.8-156.2,151.8-156.2c43.8,0,89.6,7.6,89.6,7.6v99.2h-50.6c-49.8,0-65.5,30.9-65.5,62.7v75.5h111.6l-18.1,116.5h-93.6
	V800c94.6-14.9,180.8-63.2,243-136.1c62.2-72.9,96.2-165.6,96-261.4C801.6,180.3,620.9,0,400,0z"/>
</svg>
