<?xml version="1.0" encoding="utf-8"?>
<!-- Generator: Adobe Illustrator 26.5.0, SVG Export Plug-In . SVG Version: 6.00 Build 0)  -->
<svg version="1.1" id="Layer_1" xmlns="http://www.w3.org/2000/svg" xmlns:xlink="http://www.w3.org/1999/xlink" x="0px" y="0px"
	 viewBox="0 0 830 269" style="enable-background:new 0 0 830 269;" xml:space="preserve">
<style type="text/css">
	.st0{fill:#27A8E0;}
	.st1{fill:#F9A533;}
	.st2{clip-path:url(#SVGID_00000159452700761573809180000008557851703254129041_);}
	.st3{fill:url(#SVGID_00000138547031731772817030000007409646654221879976_);}
	.st4{fill:url(#SVGID_00000132060343799410909300000003109815372624408712_);}
	.st5{fill:url(#SVGID_00000057832299690886183200000010336854308319810974_);}
	.st6{fill:url(#SVGID_00000062887954878840400940000004966435213604058805_);}
	.st7{fill:url(#SVGID_00000032633967944943164740000010570168188639619741_);}
	.st8{fill:url(#SVGID_00000085232303175152100470000013059547447634241200_);}
	.st9{fill:url(#SVGID_00000119098645082996668140000012783775825754495652_);}
	.st10{fill:url(#SVGID_00000107565858633181295510000015828166476436438714_);}
	.st11{fill:#26A9E0;}
</style>
<g>
	<g>
		<path class="st0" d="M49.1,42.2c0,0-0.6,1.9-0.9,5c-0.8,9.6,1.3,30.9,32.8,45.6c0,0-37.3-6.2-46.6-37.5
			c-3.7-12.5,1.1-26.2,12.3-33c11.2-6.8,31.4-9.6,67.4,1.4c0,0-34.5-4.4-48.7,3.8C69.9,25,84.1,48.3,49.1,42.2z"/>
		<path class="st1" d="M118.4,80.9c0,0,0.6-1.9,0.9-5c0.8-9.6-1.3-30.9-32.8-45.6c0,0,37.3,6.2,46.6,37.5c3.7,12.5-1.1,26.2-12.3,33
			c-11.2,6.8-31.4,9.6-67.4-1.4c0,0,34.5,4.4,48.7-3.8C97.6,98,83.5,74.8,118.4,80.9z"/>
		<g>
			<g>
				<g>
					<ellipse class="st0" cx="83.8" cy="62.9" rx="21.9" ry="21.7"/>
				</g>
			</g>
			<g>
				<defs>
					<ellipse id="SVGID_1_" cx="83.7" cy="62.9" rx="21.8" ry="21.7"/>
				</defs>
				<clipPath id="SVGID_00000175298940084615074770000008114740440487156412_">
					<use xlink:href="#SVGID_1_"  style="overflow:visible;"/>
				</clipPath>
				<g style="clip-path:url(#SVGID_00000175298940084615074770000008114740440487156412_);">
					
						<linearGradient id="SVGID_00000070827729254956728790000013160651891875006867_" gradientUnits="userSpaceOnUse" x1="64.0242" y1="64.8053" x2="82.8582" y2="64.8053">
						<stop  offset="0" style="stop-color:#F1E140"/>
						<stop  offset="2.097185e-02" style="stop-color:#F0DB3B"/>
						<stop  offset="0.1041" style="stop-color:#EDC82B"/>
						<stop  offset="0.1897" style="stop-color:#ECBD21"/>
						<stop  offset="0.2809" style="stop-color:#EBB91E"/>
						<stop  offset="0.6685" style="stop-color:#E6813A"/>
						<stop  offset="0.8876" style="stop-color:#E0673A"/>
						<stop  offset="1" style="stop-color:#DE3C38"/>
					</linearGradient>
					<path style="fill:url(#SVGID_00000070827729254956728790000013160651891875006867_);" d="M64.6,51.5c-0.2,1.8,0.4,2.7,0,3.6
						c-0.4,0.9-0.8,2.4-0.4,3.5c0.4,1.1,0.9,3.3,1.4,3.4c0.5,0.1-0.4-2.5,0.1-1.7c0.5,0.8,0.5,2,1.4,2.8c0.9,0.8,2.1,0.7,3,1.5
						c0.9,0.8,1.9,2,2.7,1.9c0,0-0.1,0.6-0.5,1.7c-0.4,1.1-0.5,2.3,0.1,3c0.6,0.7,1.1,1.9,1.6,2.4c0.5,0.6,0.9,3.5,0.7,5
						c-0.1,1.5,0.6,4.8,2.1,5.6c1.6,0.7,0-0.4-0.3-1.3c-0.3-0.9,0.2-3.1,1-3.4c0.8-0.3,1.4-1.5,2-2.4c0.6-0.9,2-1.2,2.4-2.3
						c0.4-1.1,0.2-2.3,0.5-2.8c0.2-0.6,0.9-1.8-0.6-2.5c-1.5-0.7-2.1-0.4-2.2-1.1c-0.1-0.7-0.4-1.4-1.5-1.7c-1.1-0.3-2-0.9-3.2-1
						c-1.2-0.1-1.4,0.8-2.1,0.3c-0.6-0.5-1.1-1-1.4-1.6c-0.2-0.6-1-0.2-0.9-0.6c0.1-0.4,1.1-1.4-0.1-1.1c-1.1,0.4-2.1,0.2-2.1-0.7
						c0.1-1,1.4-1.4,2-1.5c0.6-0.1,1,0.6,1.7,1c0.7,0.4,0.1-0.6,0.4-1.4c0.4-0.7,1.8-0.7,2-1.7c0.2-1.1-0.1-1.9,1.1-2
						c1.1-0.1,2.3,0.1,2.4-0.5c0.1-0.6-1.3,0.2-1.4-0.5c-0.1-0.7,1.2-1.6,1.6-0.9c0.4,0.7,1.3,0.7,1.4,0.5c0.1-0.2,0-0.7-0.4-1.7
						c-0.4-1.1-0.9-0.7-1.2-1.9c-0.4-1.2-1,0.1-1.6-0.6c-0.6-0.6-1.4-1.9-1.5-0.8c-0.1,1.1-0.1,1.7-0.7,2.6
						c-0.6,0.9-0.8,0.2-1.3-0.4c-0.5-0.6-1.6-1.1-1.2-1.6c0.4-0.5,0.7-1.8,1.3-1.4c0.6,0.4,1.4,0.4,1.3-0.2c-0.1-0.6,0-0.9,0.2-1.2
						c0.2-0.3,1.1-0.9,1.1,0.2c0,1.1-0.1,1.4,0.7,1.5c0.9,0.1,1.9,0.2,1.8-0.4c-0.1-0.6,0.2-0.4,0-1.4c-0.2-0.9-1-1-1.8-1.4
						c-0.8-0.4-1.2-1.1-1.9-0.9c-0.7,0.2-0.7,0.5-0.8,1.2c-0.1,0.7-0.4,0.9-0.7,0.6c-0.2-0.3,0.1-1.3-0.9-0.7
						c-0.9,0.6-1.3,1.7-1.8,0.9c-0.5-0.7,0.7-2-0.6-1.5c-1.3,0.6-2.2,1.2-1.6,1.4c0.7,0.2,1.4,0.7,0.7,0.9c-0.7,0.2-2.1-0.2-2.6,0.3
						C66,49,64.6,51.5,64.6,51.5z"/>
					
						<linearGradient id="SVGID_00000013915119671661258230000018084545620400611242_" gradientUnits="userSpaceOnUse" x1="71.9218" y1="43.7977" x2="80.2034" y2="43.7977">
						<stop  offset="0" style="stop-color:#F1E140"/>
						<stop  offset="2.097185e-02" style="stop-color:#F0DB3B"/>
						<stop  offset="0.1041" style="stop-color:#EDC82B"/>
						<stop  offset="0.1897" style="stop-color:#ECBD21"/>
						<stop  offset="0.2809" style="stop-color:#EBB91E"/>
						<stop  offset="0.6685" style="stop-color:#E6813A"/>
						<stop  offset="0.8876" style="stop-color:#E0673A"/>
						<stop  offset="1" style="stop-color:#DE3C38"/>
					</linearGradient>
					<path style="fill:url(#SVGID_00000013915119671661258230000018084545620400611242_);" d="M72,44.8c0,0.7,0.2,1.2,0.8,0.6
						c0.6-0.6,1-1.4,1.4-1.1c0.4,0.3,1.2,0.2,1.5,0.2c0.3,0,0.4-0.9,1.2-0.8c0.9,0.1,0.6-0.2,1.5-0.7c0.9-0.5,2.9-1.4,0.9-1.1
						s-2.2-0.3-3.6,0.6c-1.4,0.9-1.7,0.9-2.1,1.2c-0.4,0.2-0.8-0.7-1.3,0C71.8,44.5,72,44.1,72,44.8z"/>
					
						<linearGradient id="SVGID_00000067933109262034571640000007311872629676099741_" gradientUnits="userSpaceOnUse" x1="78.118" y1="46.3808" x2="89.5271" y2="46.3808">
						<stop  offset="0" style="stop-color:#F1E140"/>
						<stop  offset="2.097185e-02" style="stop-color:#F0DB3B"/>
						<stop  offset="0.1041" style="stop-color:#EDC82B"/>
						<stop  offset="0.1897" style="stop-color:#ECBD21"/>
						<stop  offset="0.2809" style="stop-color:#EBB91E"/>
						<stop  offset="0.6685" style="stop-color:#E6813A"/>
						<stop  offset="0.8876" style="stop-color:#E0673A"/>
						<stop  offset="1" style="stop-color:#DE3C38"/>
					</linearGradient>
					<path style="fill:url(#SVGID_00000067933109262034571640000007311872629676099741_);" d="M79.4,42.9c-0.7,0.6-1.9,1.5-1,1.5
						c0.9,0,1.3-0.5,1.8,0.1c0.5,0.6,0.3,1.5,0.3,2c0,0.4-0.2,1.4,0.4,2.7c0.6,1.2,0.7,2,1.3,1.2c0.6-0.8,2.1-2.3,2.9-2.5
						c0.7-0.1,1.5-0.4,1.9-1.1c0.4-0.6,0-1.2,0.6-1.7s0.5-1,0.7-1.7c0.2-0.7,1.9-0.7,1.1-1.1c-0.7-0.4-2.1-0.6-3.7-0.4
						C84,42.3,80.8,41.7,79.4,42.9z"/>
					
						<linearGradient id="SVGID_00000169558777282557095970000016761124500618116749_" gradientUnits="userSpaceOnUse" x1="72.3675" y1="62.8919" x2="75.1389" y2="62.8919">
						<stop  offset="0" style="stop-color:#F1E140"/>
						<stop  offset="2.097185e-02" style="stop-color:#F0DB3B"/>
						<stop  offset="0.1041" style="stop-color:#EDC82B"/>
						<stop  offset="0.1897" style="stop-color:#ECBD21"/>
						<stop  offset="0.2809" style="stop-color:#EBB91E"/>
						<stop  offset="0.6685" style="stop-color:#E6813A"/>
						<stop  offset="0.8876" style="stop-color:#E0673A"/>
						<stop  offset="1" style="stop-color:#DE3C38"/>
					</linearGradient>
					<path style="fill:url(#SVGID_00000169558777282557095970000016761124500618116749_);" d="M72.6,62c-0.4,0.6-0.2,0.7,0.2,0.8
						c0.4,0.1-0.2,0.9,0.3,0.9c0.5,0.1,1.6,0.4,1.9,0c0.3-0.4-0.5-0.2-1.1-0.6C73.5,62.7,72.9,61.5,72.6,62z"/>
					
						<linearGradient id="SVGID_00000147209261798965236320000004272625054006556061_" gradientUnits="userSpaceOnUse" x1="101.1111" y1="73.8515" x2="102.9505" y2="73.8515">
						<stop  offset="0" style="stop-color:#F1E140"/>
						<stop  offset="2.097185e-02" style="stop-color:#F0DB3B"/>
						<stop  offset="0.1041" style="stop-color:#EDC82B"/>
						<stop  offset="0.1897" style="stop-color:#ECBD21"/>
						<stop  offset="0.2809" style="stop-color:#EBB91E"/>
						<stop  offset="0.6685" style="stop-color:#E6813A"/>
						<stop  offset="0.8876" style="stop-color:#E0673A"/>
						<stop  offset="1" style="stop-color:#DE3C38"/>
					</linearGradient>
					<path style="fill:url(#SVGID_00000147209261798965236320000004272625054006556061_);" d="M102.7,72.1c-0.7,0.3-0.4,0.9-1,1.2
						c-0.6,0.4-0.4,0.5-0.6,1.4c-0.2,0.9,0.1,1.4,0.5,0.7C102.1,74.7,103.5,71.7,102.7,72.1z"/>
					
						<linearGradient id="SVGID_00000015334580953641068760000012410788940966408083_" gradientUnits="userSpaceOnUse" x1="87.8279" y1="62.5545" x2="106.3067" y2="62.5545">
						<stop  offset="0" style="stop-color:#F1E140"/>
						<stop  offset="2.097185e-02" style="stop-color:#F0DB3B"/>
						<stop  offset="0.1041" style="stop-color:#EDC82B"/>
						<stop  offset="0.1897" style="stop-color:#ECBD21"/>
						<stop  offset="0.2809" style="stop-color:#EBB91E"/>
						<stop  offset="0.6685" style="stop-color:#E6813A"/>
						<stop  offset="0.8876" style="stop-color:#E0673A"/>
						<stop  offset="1" style="stop-color:#DE3C38"/>
					</linearGradient>
					<path style="fill:url(#SVGID_00000015334580953641068760000012410788940966408083_);" d="M106.3,61.7
						c-0.2-1.1-1.6-10.6-1.6-10.6s-3.7-2.4-4.3-1.9c-0.6,0.5-1.7,0.4-1.6-0.1c0.1-0.5,0.9-0.4-0.4-1.3c-1.4-0.9-1.6-1.7-2.7-0.6
						c-1.1,1.2-1.3,2.2-1.9,2.5c-0.6,0.3-1.1,1.3-0.4,1.5c0.7,0.2,0.7,0,1.3,0.5c0.6,0.5,1.3,0.4,1.4,0.1c0.1-0.3,0.2-1.3,0.3-1.7
						c0.1-0.4,0.7-1.6,0.6-0.6c-0.1,1,0.9,1,0.2,1.7c-0.6,0.7-0.2,1.2-1.5,1.4c-1.2,0.1-1.3-0.6-2-0.2c-0.7,0.4-0.6,0.6-0.9,1
						c-0.2,0.4-1.6,1.1-1.6,1.1s-1.1-0.4-0.6,0.3c0.5,0.7,0.9,1.5,0.5,1.5c-0.4,0.1-1.6-0.6-1.6,0.1c0,0.7-0.2,1.5,0.3,1.7
						c0.4,0.1,0.6,0.4,0.9,0.4c-0.3,0.1-0.5,0.3-0.7,0.5c-0.5,0.6-0.2,1.7-1.2,2.1c-1,0.4-1,0.8-1.2,1.6c-0.2,0.8,0,2.8,0.2,3
						c0.2,0.2,0.7,1.7,1.7,1.6c1.1-0.1,2.2-0.2,2.6,0c0.4,0.2,1-0.4,1.2,1c0.2,1.4,0.6,1.6,0.9,2.4c0.2,0.7-0.1,2.3,0,3.2
						c0.1,0.9,1,2.5,1,3.3c0,0.8,0.9,1.2,1.4,0.9c0.5-0.3,1.6-0.9,2-1.9c0.4-1,0.4-1.5,1.1-2.8c0.7-1.3,0.5-2.2,0.8-3.2
						c0.3-1,1.1-1.7,2.1-2.8c1-1.1,0.8-1.7,0-1.7c-0.8,0.1-1.4-0.7-1.8-1.7c-0.4-1-0.9-3.5-0.6-2.7c0.4,0.8,1.1,3,1.9,3.4
						c0.7,0.4,2.1-0.6,2.4-1c0.3-0.4,0.2-1.4-0.6-1.8c-0.8-0.4-0.3-0.8,0.5-0.3C105.5,62.2,106.5,62.7,106.3,61.7z M99.7,59
						c-0.1,0.5,0.2,1.3-1.2,1c-1.4-0.3-1.4-1.1-1.9-0.5c-0.6,0.6-1.2,1.1-2.1,0.2c-0.8-0.9-0.7-1.1-1.1-1.2c-0.3,0-1.3-0.3-2.2,0
						c0.1,0,0.1-0.1,0.2-0.2c0.6-0.6,0.5-0.7,1.2-1.4c0.7-0.6,1.2-1.2,1.7-0.6c0.5,0.6,1.6,0.7,1.2,1.3c-0.4,0.6-0.1,1,0.3,0.6
						c0.4-0.4,1.1-0.6,0.6-1.1c-0.4-0.5-0.9-1.8-0.2-0.9c0.6,0.9,0.8,1.3,1.2,1.8c0.4,0.5,0.7,0.8,0.9,0.5c0.1-0.3-0.1-1,0.1-1.1
						c0.2-0.1,0,1.1,0.6,1.1C99.4,58.6,99.7,58.5,99.7,59z M101.1,56.9c-0.4-0.2-1.2,0-2.2,0.3c-1,0.3-0.2-0.7,0.2-1.4
						c0.4-0.6,0.2,0.2,1.1,0.2C101,56.2,101.5,57.2,101.1,56.9z M103.3,58.8c-0.2,0.2-0.5-0.9-0.7-1.4c-0.2-0.5-0.2-1.4,0.3-1.8
						c0.7-0.6,0.3,0.8,0.3,1.5C103.3,57.9,103.5,58.6,103.3,58.8z"/>
					
						<linearGradient id="SVGID_00000122701861331515283490000009319640786259650714_" gradientUnits="userSpaceOnUse" x1="89.2521" y1="52.584" x2="92.0156" y2="52.584">
						<stop  offset="0" style="stop-color:#F1E140"/>
						<stop  offset="2.097185e-02" style="stop-color:#F0DB3B"/>
						<stop  offset="0.1041" style="stop-color:#EDC82B"/>
						<stop  offset="0.1897" style="stop-color:#ECBD21"/>
						<stop  offset="0.2809" style="stop-color:#EBB91E"/>
						<stop  offset="0.6685" style="stop-color:#E6813A"/>
						<stop  offset="0.8876" style="stop-color:#E0673A"/>
						<stop  offset="1" style="stop-color:#DE3C38"/>
					</linearGradient>
					<path style="fill:url(#SVGID_00000122701861331515283490000009319640786259650714_);" d="M91.3,51.3c-0.4,0.1-0.7,0.9-0.5,1.2
						c0.2,0.4-0.2-0.2-0.7,0.1c-0.5,0.3-1.2,1.2-0.6,1.2c0.7,0.1,0.6-0.5,1.2-0.2c0.6,0.2,1.3,0.2,1.3-0.4S91.9,51.1,91.3,51.3z"/>
					
						<linearGradient id="SVGID_00000091710379805302007200000005414636384642275470_" gradientUnits="userSpaceOnUse" x1="86.9269" y1="48.9891" x2="89.3688" y2="48.9891">
						<stop  offset="0" style="stop-color:#F1E140"/>
						<stop  offset="2.097185e-02" style="stop-color:#F0DB3B"/>
						<stop  offset="0.1041" style="stop-color:#EDC82B"/>
						<stop  offset="0.1897" style="stop-color:#ECBD21"/>
						<stop  offset="0.2809" style="stop-color:#EBB91E"/>
						<stop  offset="0.6685" style="stop-color:#E6813A"/>
						<stop  offset="0.8876" style="stop-color:#E0673A"/>
						<stop  offset="1" style="stop-color:#DE3C38"/>
					</linearGradient>
					<path style="fill:url(#SVGID_00000091710379805302007200000005414636384642275470_);" d="M87.2,48.4c-0.4,0.1-0.5,1,0.3,1.1
						c0.8,0.1,2.3-0.2,1.7-0.7C88.7,48.4,88.1,48.3,87.2,48.4z"/>
				</g>
			</g>
		</g>
	</g>
	<g>
		<path class="st11" d="M194.6,32.3l-11.3,10c-4-5.5-8-8.3-12.1-8.3c-2,0-3.6,0.5-4.9,1.6c-1.3,1.1-1.9,2.3-1.9,3.6
			c0,1.3,0.5,2.6,1.4,3.8c1.2,1.6,5,5,11.2,10.3c5.8,4.9,9.4,8,10.6,9.2c3.1,3.1,5.3,6.1,6.6,9c1.3,2.9,1.9,6,1.9,9.4
			c0,6.6-2.3,12-6.8,16.3c-4.6,4.3-10.5,6.4-17.8,6.4c-5.7,0-10.7-1.4-14.9-4.2c-4.2-2.8-7.9-7.2-10.9-13.2l12.8-7.8
			c3.9,7.1,8.3,10.6,13.3,10.6c2.6,0,4.8-0.8,6.6-2.3c1.8-1.5,2.7-3.3,2.7-5.3c0-1.8-0.7-3.6-2-5.5c-1.3-1.8-4.3-4.6-8.9-8.4
			c-8.7-7.1-14.4-12.6-16.9-16.5c-2.6-3.9-3.8-7.7-3.8-11.6c0-5.6,2.1-10.3,6.4-14.3c4.2-4,9.5-6,15.7-6c4,0,7.8,0.9,11.4,2.8
			C186.4,24,190.3,27.4,194.6,32.3z"/>
		<path class="st11" d="M252.8,42.3h14.9v59.4h-14.9v-6.3c-2.9,2.8-5.8,4.8-8.8,6s-6.1,1.8-9.5,1.8c-7.7,0-14.3-3-19.9-8.9
			c-5.6-6-8.4-13.3-8.4-22.2c0-9.2,2.7-16.7,8.1-22.5c5.4-5.9,12-8.8,19.7-8.8c3.6,0,6.9,0.7,10,2c3.1,1.3,6,3.4,8.7,6.1V42.3z
			 M237.1,54.5c-4.6,0-8.4,1.6-11.5,4.9c-3,3.3-4.6,7.4-4.6,12.5c0,5.1,1.6,9.4,4.7,12.7s6.9,5,11.4,5c4.7,0,8.6-1.6,11.6-4.9
			c3.1-3.3,4.6-7.5,4.6-12.8c0-5.2-1.5-9.4-4.6-12.6C245.7,56.1,241.8,54.5,237.1,54.5z"/>
		<path class="st11" d="M282.6,42.3h14.9v6.8c2.5-2.8,5.4-4.9,8.5-6.3c3.1-1.4,6.5-2.1,10.2-2.1c3.7,0,7.1,0.9,10,2.7
			c3,1.8,5.4,4.5,7.2,8c2.4-3.5,5.3-6.1,8.7-8c3.4-1.8,7.2-2.7,11.3-2.7c4.2,0,7.9,1,11.1,2.9c3.2,2,5.5,4.5,6.9,7.7
			c1.4,3.2,2.1,8.3,2.1,15.4v34.8h-15V71.5c0-6.7-0.8-11.3-2.5-13.7c-1.7-2.4-4.2-3.6-7.5-3.6c-2.5,0-4.8,0.7-6.8,2.2
			c-2,1.5-3.5,3.5-4.5,6c-1,2.6-1.5,6.7-1.5,12.4v26.8h-15V72.9c0-5.3-0.4-9.2-1.2-11.5c-0.8-2.4-2-4.2-3.5-5.3s-3.5-1.7-5.7-1.7
			c-2.5,0-4.7,0.7-6.8,2.2S300,60,299,62.7c-1,2.7-1.5,6.8-1.5,12.6v26.4h-14.9V42.3z"/>
		<path class="st11" d="M431.6,42.3h14.9v59.4h-14.9v-6.3c-2.9,2.8-5.8,4.8-8.8,6s-6.1,1.8-9.5,1.8c-7.7,0-14.3-3-19.9-8.9
			c-5.6-6-8.4-13.3-8.4-22.2c0-9.2,2.7-16.7,8.1-22.5c5.4-5.9,12-8.8,19.7-8.8c3.6,0,6.9,0.7,10,2c3.1,1.3,6,3.4,8.7,6.1V42.3z
			 M416,54.5c-4.6,0-8.4,1.6-11.5,4.9c-3,3.3-4.6,7.4-4.6,12.5c0,5.1,1.6,9.4,4.7,12.7s6.9,5,11.4,5c4.7,0,8.6-1.6,11.6-4.9
			c3.1-3.3,4.6-7.5,4.6-12.8c0-5.2-1.5-9.4-4.6-12.6C424.6,56.1,420.7,54.5,416,54.5z"/>
		<path class="st1" d="M486.6,21.4H531v15.1h-14.6v65.2h-15.5V36.4h-14.2V21.4z"/>
		<path class="st1" d="M536.3,42.3h12.8v7.5c1.4-2.9,3.2-5.2,5.5-6.7c2.3-1.5,4.8-2.3,7.5-2.3c1.9,0,3.9,0.5,6.1,1.5l-4.6,12.8
			c-1.7-0.9-3.2-1.3-4.3-1.3c-2.3,0-4.2,1.4-5.8,4.3c-1.6,2.8-2.4,8.4-2.4,16.7l0.1,2.9v24h-14.8V42.3z"/>
		<path class="st1" d="M619.4,42.3h14.9v59.4h-14.9v-6.3c-2.9,2.8-5.8,4.8-8.8,6c-2.9,1.2-6.1,1.8-9.5,1.8c-7.7,0-14.3-3-19.9-8.9
			c-5.6-6-8.4-13.3-8.4-22.2c0-9.2,2.7-16.7,8.1-22.5c5.4-5.9,12-8.8,19.7-8.8c3.6,0,6.9,0.7,10,2c3.1,1.3,6,3.4,8.7,6.1V42.3z
			 M603.7,54.5c-4.6,0-8.4,1.6-11.5,4.9c-3,3.3-4.6,7.4-4.6,12.5c0,5.1,1.6,9.4,4.7,12.7c3.1,3.3,6.9,5,11.4,5
			c4.7,0,8.6-1.6,11.6-4.9c3.1-3.3,4.6-7.5,4.6-12.8c0-5.2-1.5-9.4-4.6-12.6C612.3,56.1,608.4,54.5,603.7,54.5z"/>
		<path class="st1" d="M643,42.3h15.2l15,35l15-35h15.1L678,101.7h-9.7L643,42.3z"/>
		<path class="st1" d="M771.4,76.3h-47.9c0.7,4.2,2.5,7.6,5.5,10.1c3,2.5,6.8,3.7,11.5,3.7c5.6,0,10.3-1.9,14.3-5.8l12.6,5.9
			c-3.1,4.4-6.9,7.7-11.2,9.8c-4.4,2.1-9.6,3.2-15.6,3.2c-9.3,0-16.9-2.9-22.8-8.8c-5.9-5.9-8.8-13.2-8.8-22.1
			c0-9.1,2.9-16.6,8.8-22.6c5.8-6,13.2-9,22-9c9.4,0,17,3,22.8,9c5.9,6,8.8,13.9,8.8,23.7L771.4,76.3z M756.5,64.5
			c-1-3.3-2.9-6-5.8-8.1c-2.9-2.1-6.3-3.1-10.1-3.1c-4.2,0-7.8,1.2-10.9,3.5c-2,1.5-3.8,4-5.5,7.7H756.5z"/>
		<path class="st1" d="M781.9,19.3h14.9v82.3h-14.9V19.3z"/>
	</g>
	<g>
		<g>
			<g>
				<g>
					<path class="st11" d="M540.4,140.4l-11.5,10.2c-4-5.6-8.2-8.4-12.3-8.4c-2,0-3.7,0.5-5,1.6c-1.3,1.1-1.9,2.3-1.9,3.7
						c0,1.4,0.5,2.7,1.4,3.9c1.3,1.6,5.1,5.1,11.4,10.5c5.9,5,9.5,8.1,10.8,9.4c3.2,3.2,5.4,6.2,6.7,9.1c1.3,2.9,2,6.1,2,9.5
						c0,6.7-2.3,12.2-6.9,16.6c-4.6,4.4-10.7,6.5-18.1,6.5c-5.8,0-10.9-1.4-15.2-4.3c-4.3-2.8-8-7.3-11.1-13.4l13.1-7.9
						c3.9,7.2,8.5,10.8,13.6,10.8c2.7,0,4.9-0.8,6.7-2.3c1.8-1.6,2.7-3.4,2.7-5.4c0-1.9-0.7-3.7-2.1-5.6c-1.4-1.8-4.4-4.7-9.1-8.5
						c-8.9-7.3-14.7-12.9-17.2-16.8c-2.6-3.9-3.9-7.9-3.9-11.8c0-5.7,2.2-10.5,6.5-14.6c4.3-4.1,9.6-6.1,16-6.1
						c4.1,0,8,0.9,11.6,2.8C532.2,131.9,536.1,135.4,540.4,140.4z"/>
					<path class="st11" d="M599.6,150.5h15.2v60.4h-15.2v-6.4c-3,2.8-5.9,4.8-8.9,6.1c-3,1.2-6.2,1.9-9.7,1.9
						c-7.8,0-14.5-3-20.2-9.1c-5.7-6.1-8.5-13.6-8.5-22.6c0-9.3,2.8-17,8.3-22.9c5.5-6,12.2-8.9,20.1-8.9c3.6,0,7,0.7,10.2,2.1
						c3.2,1.4,6.1,3.4,8.8,6.2V150.5z M583.7,163c-4.7,0-8.6,1.7-11.7,5c-3.1,3.3-4.6,7.6-4.6,12.7c0,5.2,1.6,9.5,4.7,12.9
						c3.2,3.4,7,5.1,11.7,5.1c4.8,0,8.7-1.7,11.8-5c3.1-3.3,4.7-7.7,4.7-13c0-5.3-1.6-9.5-4.7-12.8C592.5,164.6,588.5,163,583.7,163
						z"/>
					<path class="st11" d="M630,150.5h15.2v6.9c2.6-2.9,5.5-5,8.6-6.4c3.2-1.4,6.6-2.1,10.4-2.1c3.8,0,7.2,0.9,10.2,2.8
						c3,1.9,5.5,4.6,7.3,8.1c2.4-3.6,5.4-6.3,8.9-8.1c3.5-1.8,7.3-2.8,11.5-2.8c4.3,0,8.1,1,11.3,3c3.3,2,5.6,4.6,7,7.8
						c1.4,3.2,2.1,8.5,2.1,15.7v35.4h-15.3v-30.7c0-6.8-0.9-11.5-2.6-13.9c-1.7-2.4-4.3-3.6-7.7-3.6c-2.6,0-4.9,0.7-7,2.2
						c-2.1,1.5-3.6,3.5-4.6,6.1c-1,2.6-1.5,6.8-1.5,12.6v27.3h-15.3v-29.3c0-5.4-0.4-9.3-1.2-11.7c-0.8-2.4-2-4.2-3.6-5.4
						c-1.6-1.2-3.5-1.8-5.8-1.8c-2.5,0-4.8,0.7-6.9,2.2c-2.1,1.5-3.6,3.6-4.6,6.3c-1,2.7-1.5,7-1.5,12.8v26.9H630V150.5z"/>
					<path class="st11" d="M781.6,150.5h15.2v60.4h-15.2v-6.4c-3,2.8-5.9,4.8-8.9,6.1c-3,1.2-6.2,1.9-9.7,1.9
						c-7.8,0-14.5-3-20.2-9.1c-5.7-6.1-8.5-13.6-8.5-22.6c0-9.3,2.8-17,8.3-22.9c5.5-6,12.2-8.9,20.1-8.9c3.6,0,7,0.7,10.2,2.1
						c3.2,1.4,6.1,3.4,8.8,6.2V150.5z M765.7,163c-4.7,0-8.6,1.7-11.7,5c-3.1,3.3-4.6,7.6-4.6,12.7c0,5.2,1.6,9.5,4.7,12.9
						c3.2,3.4,7,5.1,11.7,5.1c4.8,0,8.7-1.7,11.8-5c3.1-3.3,4.7-7.7,4.7-13c0-5.3-1.6-9.5-4.7-12.8C774.4,164.6,770.5,163,765.7,163
						z"/>
				</g>
			</g>
			<g>
				<g>
					<g>
						<g>
							<path class="st1" d="M433.6,140.8c-19.4,0-35.1,15.7-35.1,35.1s15.7,35.1,35.1,35.1s35.1-15.7,35.1-35.1
								S452.9,140.8,433.6,140.8z M433.6,193.4c-9.7,0-17.5-7.9-17.5-17.5s7.9-17.5,17.5-17.5s17.5,7.9,17.5,17.5
								S443.3,193.4,433.6,193.4z"/>
						</g>
						<g>
							<path class="st1" d="M353.4,228.5h-0.2C353.3,228.5,353.4,228.5,353.4,228.5C353.4,228.5,353.4,228.5,353.4,228.5z"/>
							<path class="st1" d="M388.4,246.1c0,9.7-7.9,17.5-17.5,17.5c0-9.7-7.9-17.5-17.5-17.5h-17.4c-0.1,0-0.1,0-0.2,0
								c-9.6-0.1-17.4-7.9-17.4-17.5c0-9.6,7.8-17.5,17.4-17.5c0,9.7,7.9,17.5,17.5,17.5h17.5C380.5,228.5,388.4,236.4,388.4,246.1z
								"/>
							<path class="st1" d="M388.4,140.8h-35.1c-19.4,0-35.1,15.7-35.1,35.1c0,13.2,7.3,24.7,18.1,30.7c5,2.8,10.8,4.4,17,4.4
								c6.2,0,12-1.6,17-4.4c10.8-6,18.1-17.5,18.1-30.7c0-7.9-2.6-15.2-7-21C385.6,151.6,388.4,146.6,388.4,140.8z M353.3,193.4
								c-9.7,0-17.5-7.9-17.5-17.5c0-9.7,7.9-17.5,17.5-17.5c9.7,0,17.5,7.9,17.5,17.5C370.8,185.6,363,193.4,353.3,193.4z"/>
							<path class="st1" d="M335.9,246.1h-0.2v0C335.8,246.1,335.8,246.1,335.9,246.1z"/>
						</g>
					</g>
				</g>
				<path class="st11" d="M488.2,143.3c-0.7-0.8-2-1.1-6.2,0.8c-0.1,0.1-0.3,0.1-0.4,0.2l-2.6-1.6l0.3-0.1c0.1-0.1,0.2-0.2,0.1-0.3
					l-0.1-0.3c-0.1-0.1-0.2-0.2-0.3-0.1l-0.9,0.4l-2.6-1.6l0.2-0.1c0.1-0.1,0.2-0.2,0.1-0.3l-0.1-0.3c-0.1-0.1-0.2-0.2-0.3-0.1
					l-0.8,0.3l-2.1-1.3l-1.9,0.8l7,6.7c-2.2,1.1-4.3,2.2-5.8,3l-2.7-1.7l-1.3,0.5l2,2.4l-0.7,0.7l1,0l0.3,3.1l1.3-0.5l0.7-3.1
					c1.6-0.5,3.9-1.2,6.3-1.9l-0.5,9.7l1.9-0.8l0.6-2.4l0.8-0.3c0.1-0.1,0.2-0.2,0.1-0.3l-0.1-0.3c-0.1-0.1-0.2-0.2-0.3-0.1
					l-0.2,0.1l0.8-3l0.9-0.4c0.1-0.1,0.2-0.2,0.1-0.3l-0.1-0.3c-0.1-0.1-0.2-0.2-0.3-0.1l-0.3,0.1l0.8-2.9c0.1-0.1,0.3-0.1,0.4-0.2
					c4.4-1.5,5-2.6,5-3.7C488.2,143.4,488.2,143.4,488.2,143.3z"/>
				<path class="st11" d="M467.8,152.2c-1.9,0.7-3.8,1.3-5.7,2c-13.5,4.8-26.3,10.3-38.3,16.8c-7.2,3.9-13.9,8-19.8,12.8
					c-3.6,2.9-6.9,6-9.1,9.4c-1,1.5-1.7,3-2,4.6c-0.7,3.6,1.2,6.2,5.5,7.8c3.2,1.2,6.9,1.7,10.8,1.8c2.6,0.1,5.2-0.1,7.8-0.1
					c0.2,0,0.4-0.1,0.8-0.1c-1.5-0.1-2.7-0.2-4-0.3c-2.7-0.3-5.2-0.8-7.5-1.6c-3.2-1.2-5.4-2.9-6.1-5.4c-0.6-1.9-0.1-3.9,0.9-5.9
					c1.5-3.1,3.9-5.8,6.8-8.5c5.2-4.8,11.3-9.1,17.9-13.1c12.1-7.2,25.2-13.3,39.1-18.7c1-0.4,2-0.8,3.1-1.2
					C467.8,152.2,467.8,152.2,467.8,152.2z"/>
			</g>
		</g>
	</g>
</g>
</svg>
