<?xml version="1.0" encoding="utf-8"?>
<!-- Generator: Adobe Illustrator 26.5.0, SVG Export Plug-In . SVG Version: 6.00 Build 0)  -->
<svg version="1.1" id="Layer_1" xmlns="http://www.w3.org/2000/svg" xmlns:xlink="http://www.w3.org/1999/xlink" x="0px" y="0px"
	 viewBox="0 0 800 800" style="enable-background:new 0 0 800 800;" xml:space="preserve">
<style type="text/css">
	.st0{fill:#27AAE1;}
</style>
<path class="st0" d="M566.7,400c92,0,166.7-74.6,166.7-166.7S658.7,66.7,566.7,66.7S400,141.3,400,233.3c0,26.7,6.3,51.9,17.4,74.2
	c3,5.9,3.9,12.7,2.2,19.1l-9.9,37.1c-4.3,16.1,10.4,30.8,26.5,26.5l37.1-9.9c6.4-1.7,13.2-0.7,19.1,2.2
	C514.8,393.7,540,400,566.7,400z"/>
<path class="st0" d="M470,534.2L451.9,517L470,534.2z M485.2,518.3l18.1,17.2l0,0L485.2,518.3z M565.8,507.1l-12.5,21.7l0,0
	L565.8,507.1z M629.4,543.7L617,565.4L629.4,543.7z M647.4,658.6l18.1,17.2L647.4,658.6z M600,708.5l-18.1-17.2L600,708.5z
	 M555.9,732.1l2.5,24.9L555.9,732.1z M227.2,582.5l18.1-17.2L227.2,582.5z M66.8,265.5l-25,1.3l0,0L66.8,265.5z M282.6,316.8
	l18.1,17.2l0,0L282.6,316.8z M287.8,223.1l20.4-14.4L287.8,223.1z M245.8,163.7l-20.4,14.4l0,0L245.8,163.7z M142,153.6l18.1,17.2
	L142,153.6z M89.7,208.7l-18.1-17.2l0,0L89.7,208.7z M335.4,468.5l18.1-17.2L335.4,468.5z M488.1,551.5l15.2-16L467.1,501l-15.2,16
	L488.1,551.5z M553.3,528.7l63.7,36.7l24.9-43.3l-63.7-36.7L553.3,528.7z M629.3,641.4l-47.4,49.9l36.3,34.4l47.4-49.9L629.3,641.4z
	 M553.4,707.2c-47.8,4.7-172.6,0.7-308.1-141.9L209,599.7C356.7,755.2,497.5,763,558.3,757L553.4,707.2z M245.3,565.3
	C116.1,429.3,94.4,314.5,91.7,264.2l-49.9,2.7c3.3,61.6,29.5,187.8,167.3,332.9L245.3,565.3z M291.1,344.1l9.6-10.1l-36.3-34.4
	l-9.6,10.1L291.1,344.1z M308.2,208.7l-42-59.4l-40.8,28.9l42,59.4L308.2,208.7z M123.9,136.4l-52.3,55.1l36.3,34.4l52.3-55.1
	L123.9,136.4z M273,326.8c-18.1-17.2-18.1-17.2-18.2-17.2l0,0l-0.1,0.1c-0.1,0.1-0.1,0.1-0.2,0.2c-0.1,0.2-0.3,0.3-0.4,0.5
	c-0.3,0.4-0.7,0.8-1,1.2c-0.7,0.9-1.6,2.1-2.4,3.4c-1.7,2.7-3.6,6.3-5.2,10.8c-3.3,9.2-5,21.3-2.8,36.4
	c4.4,29.7,23.8,69.7,74.8,123.3l36.3-34.4c-47.6-50.1-59.3-81-61.5-96.1c-1.1-7.3,0-11.2,0.4-12.4c0.2-0.7,0.4-0.9,0.2-0.6
	c-0.1,0.1-0.2,0.3-0.5,0.7c-0.1,0.2-0.3,0.3-0.5,0.5c-0.1,0.1-0.2,0.2-0.3,0.3c-0.1,0.1-0.1,0.1-0.2,0.2l-0.1,0.1c0,0,0,0,0,0.1
	C291.2,344,291.1,344.1,273,326.8z M317.3,485.7c50.8,53.4,89.1,74.5,118.3,79.2c15,2.4,27.2,0.5,36.4-3.1c4.5-1.8,8.1-3.9,10.7-5.8
	c1.3-0.9,2.4-1.8,3.3-2.6c0.4-0.4,0.8-0.8,1.2-1.1c0.2-0.2,0.3-0.3,0.5-0.5c0.1-0.1,0.1-0.1,0.2-0.2l0.1-0.1l0,0
	c0,0,0-0.1-18.1-17.3c-18-17.2-18-17.2-18-17.2l0,0l0.1-0.1c0.1-0.1,0.1-0.1,0.2-0.2c0.1-0.1,0.2-0.2,0.3-0.3
	c0.2-0.2,0.4-0.4,0.5-0.5c0.3-0.3,0.6-0.5,0.7-0.6c0.3-0.2,0.3-0.1-0.1,0c-0.6,0.3-3.7,1.3-10,0.3c-13.4-2.2-42.4-14-90.1-64.3
	L317.3,485.7z M266.2,149.2c-33.8-47.8-101.4-55.8-142.3-12.8l36.3,34.4c17.4-18.3,48.1-16.9,65.2,7.2L266.2,149.2z M91.7,264.2
	c-0.7-13.3,5.1-26.6,16.1-38.3l-36.3-34.4c-17.9,18.8-31.4,44.9-29.8,75.4L91.7,264.2z M581.9,691.2c-9.3,9.8-19,15-28.5,16
	l4.9,49.8c24.9-2.5,45.1-15.7,59.8-31.3L581.9,691.2z M300.7,334c32.3-34,34.5-87.1,7.5-125.3l-40.8,28.9
	c14.1,19.9,11.9,46.4-2.9,62L300.7,334z M617,565.4c27.4,15.8,32.7,54.5,12.3,76l36.3,34.4C709.1,630,696.4,553.4,642,522L617,565.4
	z M503.3,535.5c12.8-13.5,32.9-16.6,50-6.7l24.9-43.3c-36.6-21.1-82-15-111.2,15.6L503.3,535.5z"/>
</svg>
