<?xml version="1.0" encoding="utf-8"?>
<!-- Generator: Adobe Illustrator 26.5.0, SVG Export Plug-In . SVG Version: 6.00 Build 0)  -->
<svg version="1.1" id="Layer_1" xmlns="http://www.w3.org/2000/svg" xmlns:xlink="http://www.w3.org/1999/xlink" x="0px" y="0px"
	 viewBox="0 0 800 800" style="enable-background:new 0 0 800 800;" xml:space="preserve">
<style type="text/css">
	.st0{clip-path:url(#SVGID_00000150102253901728816200000009422524801369414063_);}
	.st1{fill:#27AAE1;}
</style>
<g>
	<defs>
		<rect id="SVGID_1_" y="0" width="800" height="800"/>
	</defs>
	<clipPath id="SVGID_00000005266516804982451820000010539634270079049614_">
		<use xlink:href="#SVGID_1_"  style="overflow:visible;"/>
	</clipPath>
	<g id="style_x3D_linear" style="clip-path:url(#SVGID_00000005266516804982451820000010539634270079049614_);">
		<g id="web">
			<path id="vector" class="st1" d="M260,400h-25H260z M540,400h25H540z M400,540v25V540z M472.4,742.5l5.1,24.5L472.4,742.5z
				 M327.6,742.5l-5.1,24.5L327.6,742.5z M75.9,267.7l-23.1-9.5l0,0L75.9,267.7z M57.5,472.4L33,477.6L57.5,472.4z M327.6,57.5
				L322.4,33L327.6,57.5z M472.4,57.5l5.1-24.5L472.4,57.5z M721.3,269l7.3,23.9L721.3,269z M78.6,269l-7.3,23.9L78.6,269z
				 M701,277.3c15.4,37.8,24,79.2,24,122.7h50c0-50.1-9.8-97.9-27.7-141.6L701,277.3z M725,400c0,23.1-2.4,45.6-7,67.3l48.9,10.3
				c5.3-25.1,8-51,8-77.6H725z M718,467.3C691.6,592.8,592.8,691.6,467.3,718l10.3,48.9C622.4,736.5,736.5,622.4,767,477.6
				L718,467.3z M467.3,718c-21.7,4.6-44.2,7-67.3,7v50c26.6,0,52.5-2.8,77.6-8L467.3,718z M400,725c-23.1,0-45.6-2.4-67.3-7
				L322.4,767c25.1,5.3,51,8,77.6,8V725z M75,400c0-43.5,8.5-85,24-122.8l-46.3-18.9C34.8,302,25,349.9,25,400H75z M332.7,718
				C207.2,691.6,108.4,592.8,82,467.3L33,477.6C63.5,622.4,177.5,736.5,322.4,767L332.7,718z M82,467.3c-4.6-21.7-7-44.2-7-67.3H25
				c0,26.6,2.8,52.5,8,77.6L82,467.3z M99,277.2C139.2,178.7,226.5,104.3,332.7,82L322.4,33C199.7,58.9,99.1,144.6,52.7,258.3
				L99,277.2z M332.7,82c21.7-4.6,44.2-7,67.3-7V25c-26.6,0-52.5,2.8-77.6,8L332.7,82z M400,75c23.1,0,45.6,2.4,67.3,7L477.6,33
				c-25.1-5.3-51-8-77.6-8V75z M467.3,82c106.3,22.4,193.5,96.7,233.8,195.3l46.3-18.9C700.9,144.7,600.4,58.9,477.6,33L467.3,82z
				 M448.6,65.1c9.7,30.3,45.4,146.8,60.1,253.8l49.5-6.8C543,200.6,506,80.6,496.2,49.9L448.6,65.1z M508.7,318.9
				c3.9,28.7,6.3,56.3,6.3,81.1h50c0-27.7-2.6-57.7-6.7-87.8L508.7,318.9z M714.1,245.1c-38.4,11.7-110.6,32.1-185.1,45.9l9.1,49.2
				c77.1-14.2,151.3-35.3,190.6-47.2L714.1,245.1z M528.9,291c-45.2,8.3-90.4,14-128.9,14v50c42.9,0,91.4-6.3,138-14.9L528.9,291z
				 M515,400c0,36.7-5.2,79.4-12.8,122.4l49.2,8.8c7.9-44.4,13.6-90.3,13.6-131.2H515z M502.2,522.4
				c-16.9,94.3-45.2,186.3-53.5,212.5l47.6,15.2c8.6-26.9,37.7-121.4,55.1-218.9L502.2,522.4z M734.9,448.6
				c-26.3,8.4-118.3,36.7-212.5,53.5l8.8,49.2c97.5-17.4,192-46.5,218.9-55.1L734.9,448.6z M522.4,502.2
				c-43,7.7-85.7,12.8-122.4,12.8v50c40.8,0,86.7-5.7,131.2-13.6L522.4,502.2z M400,515c-36.7,0-79.4-5.2-122.4-12.8l-8.8,49.2
				c44.4,7.9,90.3,13.6,131.2,13.6V515z M277.6,502.2C183.4,485.3,91.4,457,65.1,448.6l-15.2,47.6c26.9,8.6,121.4,37.7,218.9,55.1
				L277.6,502.2z M235,400c0,40.8,5.7,86.7,13.6,131.2l49.2-8.8c-7.7-43-12.8-85.7-12.8-122.4H235z M248.6,531.2
				c17.4,97.5,46.5,192,55.1,218.9l47.6-15.2c-8.4-26.3-36.7-118.3-53.5-212.5L248.6,531.2z M303.8,49.9
				c-9.8,30.7-46.7,150.7-62,262.2l49.5,6.8c14.7-107.1,50.4-223.6,60.1-253.8L303.8,49.9z M241.7,312.2
				c-4.1,30.1-6.7,60.1-6.7,87.8h50c0-24.8,2.4-52.4,6.3-81.1L241.7,312.2z M400,305c-38.6,0-83.8-5.7-128.9-14l-9.1,49.2
				c46.6,8.6,95.1,14.9,138,14.9V305z M271.1,291c-74.5-13.8-146.7-34.2-185.2-45.9l-14.5,47.8c39.2,11.9,113.4,33,190.6,47.2
				L271.1,291z M712.7,245.6c0.4-0.2,0.9-0.4,1.4-0.6l14.5,47.8c2.5-0.8,4.9-1.7,7.1-2.9L712.7,245.6z M62.8,289.1
				c2.6,1.6,5.5,2.9,8.6,3.8l14.5-47.8c1.1,0.3,2.1,0.8,3,1.3L62.8,289.1z"/>
		</g>
	</g>
</g>
</svg>
